Coordinates
version=1
nRows=36
nColumns=13
inDegrees=yes

Units are S.I. units (second, meters, Newtons, ...)
If the header above contains a line with 'inDegrees', this indicates whether rotational values are in degrees (yes) or radians (no).

endheader
time	bJoint_3	bJoint_4	seatpos	slocangle	plocangle	hipangle	kneeangle	footangle	lbackangle	uarmleft_out	uarmleft_trn	uarmleft_up
      0.02000000	      0.00000000	     -0.00000020	     -0.64353179	     -0.02124493	     -0.02124493	     24.15563401	    143.36800549	     77.52363950	     11.46003757	     -7.56695855	    -77.75173254	    -51.43622134
      0.04000000	     -0.00000000	     -0.00000020	     -0.57229918	     -0.02062692	     -0.02062692	     27.94733319	    134.15961874	     72.10695192	     11.40156327	    -11.94242049	    -73.52920204	    -47.87056543
      0.06000000	     -0.00000000	     -0.00000020	     -0.52854419	     -0.01957548	     -0.01957548	     30.55075573	    128.31226039	     68.86301612	     11.45738574	    -14.80791105	    -70.72475896	    -45.71378240
      0.08000000	      0.00000000	     -0.00000020	     -0.48529056	     -0.01939396	     -0.01939396	     33.29575775	    122.36796348	     65.66372124	     11.39038245	    -17.85338566	    -68.23816890	    -43.45792231
      0.10000000	     -0.00000000	     -0.00000020	     -0.44153060	     -0.01925603	     -0.01925603	     36.23783850	    116.16197674	     62.39981525	     11.44523905	    -20.87721163	    -65.66835699	    -41.41979254
      0.12000000	     -0.00000000	     -0.00000020	     -0.39929794	     -0.01359056	     -0.01359056	     39.23755335	    109.95672182	     59.19427517	     11.39179218	    -23.18121255	    -63.16849639	    -38.73114910
      0.14000000	     -0.00000000	     -0.00000020	     -0.35754174	     -0.01364047	     -0.01364047	     42.37026449	    103.57228228	     55.94254677	     11.44914895	    -25.81162591	    -60.65658286	    -36.48642138
      0.16000000	      0.00000000	     -0.00000020	     -0.31733911	     -0.01266504	     -0.01266504	     45.56288564	     97.14222118	     52.70510681	     11.41228931	    -28.60788731	    -58.59470167	    -34.76974933
      0.18000000	     -0.00000000	     -0.00000020	     -0.27927603	     -0.01231440	     -0.01231440	     48.77153425	     90.74100305	     49.51253729	      9.11560958	    -31.49630218	    -60.81706892	    -29.29020063
      0.20000000	      0.00000000	     -0.00000020	     -0.24214191	     -0.01222246	     -0.01222246	     52.11110942	     84.13139555	     46.24250497	      6.82461873	    -33.29172012	    -64.08303261	    -23.58705730
      0.22000000	      0.00000000	     -0.00000020	     -0.20721031	     -0.01215488	     -0.01215488	     55.48524528	     77.49912491	     42.98437018	      4.59339786	    -33.75696929	    -68.20693174	    -17.87218749
      0.24000000	      0.00000000	     -0.00000020	     -0.17504846	     -0.01207359	     -0.01207359	     58.84431142	     70.93576260	     39.78007402	      2.25024770	    -32.22003694	    -73.91747846	    -11.30013702
      0.26000000	      0.00000000	     -0.00000020	     -0.14497387	     -0.01173360	     -0.01173360	     62.27005407	     64.27784195	     36.54789602	     -0.07121591	    -21.59287093	    -83.93019785	      2.83765253
      0.28000000	      0.00000000	     -0.00000020	     -0.11702900	     -0.01159924	     -0.01159924	     65.78398667	     57.48255819	     33.26654486	     -2.32078913	    -15.70136564	    -73.57696219	     11.76014416
      0.30000000	      0.00000000	     -0.00000020	     -0.09203415	     -0.01155325	     -0.01155325	     69.30308322	     50.70943322	     30.01251644	     -4.61216948	    -13.50608754	    -68.35666561	     16.28327522
      0.32000000	      0.00000000	     -0.00000020	     -0.07009372	     -0.01153394	     -0.01153394	     72.81840174	     43.97417785	     26.79257958	     -6.93923708	    -12.01225016	    -64.46798363	     19.68485804
      0.34000000	      0.00000000	     -0.00000020	     -0.05115087	     -0.01154865	     -0.01154865	     76.34594965	     37.24542500	     23.59137465	     -9.22631118	     -6.86903694	    -56.68600074	     24.56381667
      0.36000000	      0.00000000	     -0.00000020	     -0.03522229	     -0.01152432	     -0.01152432	     79.89531006	     30.50511327	     20.40042334	    -11.59945504	     -2.45788502	    -50.06817966	     28.83498006
      0.38000000	      0.00000000	     -0.00000020	     -0.02231440	     -0.01149786	     -0.01149786	     83.48711038	     23.71520334	     17.20231372	    -13.89706089	      1.33901815	    -44.28649824	     32.68373558
      0.40000000	      0.00000000	     -0.00000020	     -0.01248707	     -0.01150827	     -0.01150827	     87.14662860	     16.83018172	     13.97681032	    -16.19314145	      4.63205308	    -38.88671507	     36.48234524
      0.42000000	      0.00000000	     -0.00000020	     -0.00683395	     -0.01149499	     -0.01149499	     90.20873766	     11.09560276	     11.30434042	    -18.61478802	      7.82354557	    -33.67872205	     40.15829557
      0.44000000	      0.00000000	     -0.00000020	     -0.00465253	     -0.01145212	     -0.01145212	     91.95527727	      7.83598258	      9.79125984	    -21.00814472	     10.66228374	    -28.82244370	     43.64893834
      0.46000000	      0.00000001	     -0.00000019	     -0.00370441	     -0.01132932	     -0.01132932	     93.00449638	      5.88183054	      8.88632693	    -23.44334287	     15.99633485	    -22.80690195	     44.52485217
      0.48000000	      0.00000001	     -0.00000018	     -0.00331115	     -0.01158449	     -0.01158449	     93.56153117	      4.84561757	      8.40714874	    -25.90644452	     19.80161136	    -17.94491696	     44.81089930
      0.50000000	      0.00000001	     -0.00000017	     -0.00312536	     -0.00210323	     -0.00210323	     93.87142515	      4.26952421	      8.14094936	    -28.29451835	     23.83475398	    -13.40739986	     44.79017210
      0.52000000	      0.00000001	     -0.00000016	     -0.00294722	      0.00028119	      0.00028119	     94.21431622	      3.63240875	      7.84672497	    -30.71073801	     28.11967377	     -8.95703134	     44.27888765
      0.54000000	      0.00000002	     -0.00000016	     -0.00288700	      0.00014055	      0.00014055	     94.34479215	      3.39006396	      7.73485612	    -32.99398433	     32.81451350	     -4.56374657	     43.31206867
      0.56000000	      0.00000002	     -0.00000016	     -0.00282220	     -0.00014863	     -0.00014863	     94.49654646	      3.10825856	      7.60480503	    -35.29477633	     37.86820165	     -0.41711372	     41.64701287
      0.58000000	      0.00000002	     -0.00000016	     -0.00281571	     -0.00003680	     -0.00003680	     94.51251998	      3.07859986	      7.59111984	    -37.56017179	     42.36784794	      4.53401437	     39.44366134
      0.60000000	      0.00000002	     -0.00000017	     -0.00280958	      0.00000403	      0.00000403	     94.52775050	      3.05032139	      7.57807189	    -39.77060721	     47.95792698	      8.97045498	     36.39530769
      0.62000000	      0.00000002	     -0.00000017	     -0.00284601	      0.00000103	      0.00000103	     94.43925525	      3.21463966	      7.65389491	    -40.56513460	     54.25656912	     12.69908704	     33.67894892
      0.64000000	      0.00000002	     -0.00000017	     -0.00289866	      0.00000112	      0.00000112	     94.31881264	      3.43831416	      7.75712680	    -40.20565696	     67.40990050	     21.10805303	     36.58236241
      0.66000000	      0.00000001	     -0.00000018	     -0.00299820	      0.00000028	      0.00000028	     94.11032681	      3.82559274	      7.93591954	    -40.09651698	     70.32539028	     23.08729255	     42.74466686
      0.68000000	      0.00000001	     -0.00000018	     -0.00313584	      0.00000011	      0.00000011	     93.85284079	      4.30406486	      8.15690565	    -40.08503510	     72.52587520	     26.46169636	     41.46245516
      0.70000000	      0.00000001	     -0.00000018	     -0.00294127	      0.00000022	      0.00000022	     94.22682640	      3.60917034	      7.83599674	    -40.10873190	     68.55041951	     22.12824889	     43.69952542
      0.72000000	      0.00000002	     -0.00000017	     -0.00285738	      0.00000018	      0.00000018	     94.41253378	      3.26426062	      7.67679440	    -40.16488741	     65.95405417	     17.72986816	     45.21932656
